<svg width="48" height="48" viewBox="0 0 48 48" fill="none" xmlns="http://www.w3.org/2000/svg">
<path d="M0 32.5C0 31.6716 0.671573 31 1.5 31H6.5C7.32843 31 8 31.6716 8 32.5V32.5C8 33.3284 7.32843 34 6.5 34H1.5C0.671573 34 0 33.3284 0 32.5V32.5Z" fill="#1B344B"/>
<path d="M13 46.5C13 45.6716 13.6716 45 14.5 45H21.5C22.3284 45 23 45.6716 23 46.5V46.5C23 47.3284 22.3284 48 21.5 48H14.5C13.6716 48 13 47.3284 13 46.5V46.5Z" fill="#1B344B"/>
<path d="M13 25.5C13 24.6716 13.6716 24 14.5 24H26.5C27.3284 24 28 24.6716 28 25.5V25.5C28 26.3284 27.3284 27 26.5 27H14.5C13.6716 27 13 26.3284 13 25.5V25.5Z" fill="#1B344B"/>
<path d="M0 39.5C0 38.6716 0.671573 38 1.5 38H16.5C17.3284 38 18 38.6716 18 39.5V39.5C18 40.3284 17.3284 41 16.5 41H1.5C0.671573 41 0 40.3284 0 39.5V39.5Z" fill="#1B344B"/>
<path d="M0 46.5C0 45.6716 0.671573 45 1.5 45H8.5C9.32843 45 10 45.6716 10 46.5V46.5C10 47.3284 9.32843 48 8.5 48H1.5C0.671573 48 0 47.3284 0 46.5V46.5Z" fill="#1B344B"/>
<path d="M0 25.5C0 24.6716 0.671573 24 1.5 24H8.5C9.32843 24 10 24.6716 10 25.5V25.5C10 26.3284 9.32843 27 8.5 27H1.5C0.671573 27 0 26.3284 0 25.5V25.5Z" fill="#1B344B"/>
<path fill-rule="evenodd" clip-rule="evenodd" d="M18.7127 31C17.9213 31.8597 17.3946 32.8999 17.1526 34H13.5C12.6716 34 12 33.3284 12 32.5C12 31.6716 12.6716 31 13.5 31H18.7127Z" fill="#1B344B"/>
<path fill-rule="evenodd" clip-rule="evenodd" d="M39.4534 38H36.5C35.6716 38 35 38.6716 35 39.5C35 40.3284 35.6716 41 36.5 41H36.9423L39.4534 38ZM45.9739 38L43.4627 41H46.5C47.3284 41 48 40.3284 48 39.5C48 38.6716 47.3284 38 46.5 38H45.9739Z" fill="#1B344B"/>
<path fill-rule="evenodd" clip-rule="evenodd" d="M44.7487 27H46.5C46.8841 27 47.2346 26.8556 47.4999 26.6181C47.4291 26.5209 47.3454 26.4306 47.249 26.3499C46.6138 25.8182 45.6677 25.9021 45.136 26.5374L44.7487 27ZM38.2283 27L40.7394 24H33.5C32.6716 24 32 24.6716 32 25.5C32 26.3284 32.6716 27 33.5 27H38.2283Z" fill="#1B344B"/>
<path fill-rule="evenodd" clip-rule="evenodd" d="M33.5941 45H28.5039L29.7189 46.7043C29.9885 47.0824 30.4181 47.3144 30.8822 47.3324C31.3462 47.3504 31.7925 47.1524 32.0905 46.7963L33.5941 45ZM40.1146 45L37.6034 48H46.5001C47.3285 48 48.0001 47.3284 48.0001 46.5C48.0001 45.6716 47.3285 45 46.5001 45H40.1146Z" fill="#1B344B"/>
<path fill-rule="evenodd" clip-rule="evenodd" d="M38.8891 34H42.8013L45.3125 31H41.4002L38.8891 34ZM26.3237 33.4312C26.3159 33.4214 26.3083 33.4115 26.3008 33.4016L26.3501 33.3664L26.3237 33.4312ZM30.4862 34L28.7928 31.6249C28.6351 31.4037 28.4661 31.1953 28.2871 31H34.8798L32.3686 34H30.4862Z" fill="#1B344B"/>
<path fill-rule="evenodd" clip-rule="evenodd" d="M47.2486 26.3498C47.8839 26.8816 47.9678 27.8276 47.4361 28.4628L32.0901 46.7962C31.792 47.1523 31.3457 47.3503 30.8817 47.3322C30.4176 47.3142 29.9881 47.0823 29.7185 46.7041L22.2787 36.2689C21.7978 35.5943 21.9548 34.6576 22.6293 34.1767C23.3039 33.6958 24.2406 33.8528 24.7215 34.5273L31.0349 43.3828L45.1356 26.5372C45.6673 25.902 46.6134 25.8181 47.2486 26.3498Z" fill="#1B344B"/>
<path d="M5.84539 8.13C5.38902 8.13 5.04416 8.48186 4.74523 8.82669C4.58996 9.0058 4.37734 9.12 4.08 9.12C3.39 9.12 2.985 8.52 2.985 6.9C2.985 5.46 3.36 4.77 4.095 4.77C4.36562 4.77 4.56494 4.84657 4.7107 4.97646C5.08439 5.30945 5.42843 5.76 5.92895 5.76H6.79703C7.3677 5.76 7.82592 5.27032 7.59572 4.74815C7.18581 3.81835 6.19673 2.805 4.08 2.805C1.47 2.805 0 4.635 0 7.005C0 9.24 1.215 11.055 3.975 11.055C5.96803 11.055 6.99109 10.2467 7.48919 9.25309C7.76644 8.70006 7.28113 8.13 6.6625 8.13H5.84539Z" fill="#1B344B"/>
<path d="M10.9562 10.86C11.5085 10.86 11.9562 10.4123 11.9562 9.86V1C11.9562 0.447716 11.5085 0 10.9562 0L10.0312 0C9.47889 0 9.03117 0.447715 9.03117 1V9.86C9.03117 10.4123 9.47889 10.86 10.0312 10.86H10.9562Z" fill="#1B344B"/>
<path d="M14.6461 3C14.0938 3 13.6461 3.44772 13.6461 4V10.875C13.6461 11.565 13.4511 11.76 12.8661 11.76V11.76C12.7667 11.76 12.6861 11.8406 12.6861 11.94V13.0343C12.6861 13.4984 13.047 13.89 13.5111 13.89V13.89C16.1211 13.89 16.5561 12.66 16.5561 10.305V4C16.5561 3.44772 16.1084 3 15.5561 3H14.6461ZM15.5711 2.025C16.1234 2.025 16.5711 1.57728 16.5711 1.025V0.999999C16.5711 0.447715 16.1234 0 15.5711 0L14.6461 0C14.0938 0 13.6461 0.447715 13.6461 1V1.025C13.6461 1.57729 14.0938 2.025 14.6461 2.025H15.5711Z" fill="#1B344B"/>
</svg>
